<svg width="15" height="25" viewBox="0 0 15 25" fill="none" xmlns="http://www.w3.org/2000/svg">
<path d="M6.65412 24.3636V0.727271H8.16832V24.3636H6.65412ZM11.3906 8.05824C11.2921 7.18418 10.8859 6.5071 10.1719 6.02699C9.45786 5.54072 8.55919 5.29759 7.47585 5.29759C6.70028 5.29759 6.02936 5.42069 5.46307 5.6669C4.89678 5.90696 4.45668 6.23935 4.14276 6.66406C3.83499 7.08262 3.68111 7.55966 3.68111 8.09517C3.68111 8.54451 3.78575 8.93229 3.99503 9.25852C4.21046 9.58475 4.49053 9.85866 4.83523 10.0803C5.18608 10.2957 5.56155 10.4773 5.96165 10.625C6.36174 10.7666 6.74645 10.8835 7.11577 10.9759L8.96236 11.456C9.56558 11.6037 10.1842 11.8037 10.8182 12.0561C11.4522 12.3085 12.04 12.6409 12.5817 13.0533C13.1233 13.4657 13.5604 13.9766 13.8928 14.5859C14.2313 15.1953 14.4006 15.9247 14.4006 16.7741C14.4006 17.8452 14.1236 18.7962 13.5696 19.6271C13.0218 20.4581 12.2247 21.1136 11.1783 21.5938C10.138 22.0739 8.87926 22.3139 7.40199 22.3139C5.98627 22.3139 4.76136 22.0893 3.72727 21.6399C2.69318 21.1906 1.88376 20.5535 1.29901 19.7287C0.714252 18.8977 0.391099 17.9129 0.329546 16.7741H3.19176C3.24716 17.4574 3.46875 18.0268 3.85653 18.4822C4.25047 18.9316 4.75213 19.267 5.36151 19.4886C5.97704 19.7041 6.65104 19.8118 7.38352 19.8118C8.18987 19.8118 8.90696 19.6856 9.5348 19.4332C10.1688 19.1747 10.6674 18.8177 11.0305 18.3622C11.3937 17.9006 11.5753 17.362 11.5753 16.7464C11.5753 16.1863 11.4152 15.7277 11.0952 15.3707C10.7813 15.0137 10.3535 14.7183 9.81179 14.4844C9.27628 14.2505 8.66998 14.0443 7.9929 13.8658L5.75852 13.2564C4.24432 12.844 3.04403 12.2377 2.15767 11.4375C1.27746 10.6373 0.837358 9.5786 0.837358 8.26136C0.837358 7.17187 1.13281 6.22088 1.72372 5.40838C2.31463 4.59588 3.11482 3.96496 4.12429 3.51562C5.13376 3.06013 6.27249 2.83239 7.54048 2.83239C8.82079 2.83239 9.95028 3.05705 10.929 3.50639C11.9138 3.95573 12.6894 4.57434 13.2557 5.36221C13.822 6.14394 14.1174 7.04261 14.142 8.05824H11.3906Z" fill="#2E2E2E" fill-opacity="0.7"/>
</svg>
